<?xml version="1.0" encoding="UTF-8"?>
<svg xmlns="http://www.w3.org/2000/svg" width="1024" height="1024" viewBox="0 0 1024 1024">
  <path d="M 401.00 730.50 L 379.00 728.50 L 374.50 725.00 L 373.50 719.00 L 463.00 536.50 L 326.00 521.50 L 277.00 601.50 L 253.00 605.50 L 240.00 602.50 L 236.50 597.00 L 236.50 376.00 L 240.00 370.50 L 267.00 368.50 L 277.00 371.50 L 328.00 456.50 L 464.50 443.00 L 375.50 260.00 L 378.00 252.50 L 413.00 250.50 L 431.00 257.50 L 606.00 434.50 L 694.00 437.50 L 750.00 443.50 L 792.00 455.50 L 810.00 466.50 L 817.50 475.00 L 820.50 494.00 L 814.50 506.00 L 801.00 517.50 L 768.00 530.50 L 705.00 540.50 L 607.00 542.50 L 425.00 726.50 L 401.00 730.50 Z" fill="#E31837" fill-rule="evenodd"/>
</svg>
